squats_1_grf
version=1
nRows=30
nColumns=19
inDegrees=no
endheader
time	ground_force_right_vx	ground_force_right_vy	ground_force_right_vz	ground_force_right_px	ground_force_right_py	ground_force_right_pz	ground_force_right_mx	ground_force_right_my	ground_force_right_mz	ground_force_left_vx	ground_force_left_vy	ground_force_left_vz	ground_force_left_px	ground_force_left_py	ground_force_left_pz	ground_force_left_mx	ground_force_left_my	ground_force_left_mz
     25.05200000	      7.92663101	    331.76956171	     49.66002758	     -3.46633666	      0.00743015	      2.27486727	     -0.00758863	      2.60346448	      0.01178784	     -1.42618792	    343.25130694	    -48.34166086	     -3.45250607	      0.00802073	      2.67793942	      0.00769806	     -2.31694492	      0.00402332
     25.05300000	      8.34464409	    332.25619088	     49.78004781	     -3.46649741	      0.00742994	      2.27480905	     -0.00765607	      2.62660304	      0.01189260	     -1.31583693	    343.19951654	    -48.23279165	     -3.45254076	      0.00802057	      2.67791661	      0.00774402	     -2.33077610	      0.00404734
     25.05400000	      8.75930625	    332.71921055	     49.90505674	     -3.46665834	      0.00742975	      2.27474843	     -0.00772258	      2.64942134	      0.01199592	     -1.20768267	    343.17891532	    -48.12394132	     -3.45257120	      0.00802043	      2.67789206	      0.00779095	     -2.34490128	      0.00407187
     25.05500000	      9.16872993	    333.15870849	     50.03530657	     -3.46681922	      0.00742956	      2.27468543	     -0.00778797	      2.67185538	      0.01209750	     -1.10266931	    343.18967553	    -48.01527097	     -3.45259729	      0.00802030	      2.67786584	      0.00783885	     -2.35931903	      0.00409691
     25.05600000	      9.57096541	    333.57490303	     50.17102061	     -3.46697979	      0.00742939	      2.27462010	     -0.00785206	      2.69384049	      0.01219704	     -1.00170054	    343.23179182	    -47.90697628	     -3.45261896	      0.00802018	      2.67783803	      0.00788772	     -2.37402685	      0.00412245
     25.05700000	      9.96401679	    333.96814122	     50.31239068	     -3.46713981	      0.00742923	      2.27455250	     -0.00791464	      2.71531208	      0.01229426	     -0.90562814	    343.30507069	    -47.79928563	     -3.45263619	      0.00802007	      2.67780875	      0.00793754	     -2.38902087	      0.00414848
     25.05800000	     10.34585876	    334.33889727	     50.45957487	     -3.46729897	      0.00742908	      2.27448271	     -0.00797554	      2.73620637	      0.01238886	     -0.81524145	    343.40912194	    -47.69245780	     -3.45264898	      0.00801997	      2.67777814	      0.00798829	     -2.40429553	      0.00417501
     25.05900000	     10.71445432	    334.68777102	     50.61269568	     -3.46745697	      0.00742895	      2.27441081	     -0.00803458	      2.75646114	      0.01248057	     -0.73125799	    343.54335221	    -47.58677900	     -3.45265739	      0.00801989	      2.67774635	      0.00803994	     -2.41984331	      0.00420200
     25.06000000	     11.06777286	    335.01548626	     50.77183864	     -3.46761349	      0.00742883	      2.27433687	     -0.00809158	      2.77601647	      0.01256911	     -0.65431530	    343.70696097	    -47.48255937	     -3.45266150	      0.00801982	      2.67771354	      0.00809248	     -2.43565445	      0.00422946
     25.06100000	     11.40380880	    335.32288880	     50.93705117	     -3.46776818	      0.00742872	      2.27426101	     -0.00814638	      2.79481546	      0.01265423	     -0.58496411	    343.89893887	    -47.38012912	     -3.45266146	      0.00801976	      2.67767989	      0.00814584	     -2.45171672	      0.00425735
     25.06200000	     11.72060029	    335.61094405	     51.10834193	     -3.46792071	      0.00742863	      2.27418333	     -0.00819882	      2.81280491	      0.01273568	     -0.52366285	    344.11806859	    -47.27983405	     -3.45265742	      0.00801972	      2.67764560	      0.00819999	     -2.46801520	      0.00428565
     25.06300000	     12.01624795	    335.88073393	     51.28568040	     -3.46807070	      0.00742855	      2.27410395	     -0.00824875	      2.82993598	      0.01281325	     -0.47077360	    344.36292831	    -47.18203089	     -3.45264960	      0.00801968	      2.67761087	      0.00825487	     -2.48453212	      0.00431434
     25.06400000	     12.28893340	    336.13345290	     51.46899688	     -3.46821781	      0.00742849	      2.27402298	     -0.00829605	      2.84616474	      0.01288673	     -0.42655948	    344.63189760	    -47.08708221	     -3.45263824	      0.00801966	      2.67757592	      0.00831041	     -2.50124672	      0.00434336
     25.06500000	     12.53693737	    336.37040304	     51.65818265	     -3.46836167	      0.00742844	      2.27394057	     -0.00834061	      2.86145273	      0.01295595	     -0.39118353	    344.92316578	    -46.99535121	     -3.45262362	      0.00801965	      2.67754096	      0.00836652	     -2.51813520	      0.00437269
     25.06600000	     12.75865728	    336.59298801	     51.85309053	     -3.46850191	      0.00742841	      2.27385684	     -0.00838234	      2.87576743	      0.01302076	     -0.36470903	    345.23474261	    -46.90719638	     -3.45260606	      0.00801964	      2.67750621	      0.00842312	     -2.53517066	      0.00440227
     25.06700000	     12.95262402	    336.80270581	     52.05353556	     -3.46863819	      0.00742840	      2.27377193	     -0.00842115	      2.88908263	      0.01308105	     -0.34710137	    345.56447110	    -46.82296612	     -3.45258590	      0.00801965	      2.67747189	      0.00848011	     -2.55232318	      0.00443205
     25.06800000	     13.11751781	    337.00114024	     52.25929595	     -3.46877015	      0.00742840	      2.27368600	     -0.00845699	      2.90137875	      0.01313672	     -0.33823127	    345.91004227	    -46.74299350	     -3.45256350	      0.00801967	      2.67743822	      0.00853738	     -2.56955984	      0.00446198
     25.06900000	     13.25218293	    337.18995115	     52.47011411	     -3.46889747	      0.00742842	      2.27359920	     -0.00848983	      2.91264312	      0.01318772	     -0.33787942	    346.26901169	    -46.66759113	     -3.45253924	      0.00801969	      2.67740542	      0.00859481	     -2.58684494	      0.00449200
     25.07000000	     13.35564119	    337.37086332	     52.68569790	     -3.46901982	      0.00742846	      2.27351168	     -0.00851964	      2.92287006	      0.01323403	     -0.34574243	    346.63881746	    -46.59704623	     -3.45251355	      0.00801972	      2.67737367	      0.00865227	     -2.60414011	      0.00452203
     25.07100000	     13.42710386	    337.54565415	     52.90572197	     -3.46913691	      0.00742852	      2.27342362	     -0.00854643	      2.93206097	      0.01327564	     -0.36143986	    347.01679952	    -46.53161612	     -3.45248683	      0.00801976	      2.67734319	      0.00870963	     -2.62140461	      0.00455201
     25.07200000	     13.46598202	    337.71614016	     53.12982922	     -3.46924847	      0.00742860	      2.27333517	     -0.00857022	      2.94022427	      0.01331260	     -0.38452238	    347.40021993	    -46.47152395	     -3.45245952	      0.00801980	      2.67731414	      0.00876675	     -2.63859559	      0.00458186
     25.07300000	     13.47189518	    337.88416238	     53.35763237	     -3.46935424	      0.00742869	      2.27324652	     -0.00859106	      2.94737525	      0.01334498	     -0.41448066	    347.78628394	    -46.41695492	     -3.45243205	      0.00801984	      2.67728670	      0.00882347	     -2.65566837	      0.00461151
     25.07400000	     13.44467790	    338.05157078	     53.58871560	     -3.46945402	      0.00742880	      2.27315784	     -0.00860902	      2.95353585	      0.01337288	     -0.45075500	    348.17216161	    -46.36805300	     -3.45240485	      0.00801989	      2.67726103	      0.00887965	     -2.67257683	      0.00464087
     25.07500000	     13.38438457	    338.22020785	     53.82263626	     -3.46954761	      0.00742893	      2.27306932	     -0.00862417	      2.95873429	      0.01339641	     -0.49274533	    348.55500958	    -46.32491808	     -3.45237835	      0.00801993	      2.67723724	      0.00893513	     -2.68927373	      0.00466986
     25.07600000	     13.29129205	    338.39189147	     54.05892660	     -3.46963486	      0.00742907	      2.27298113	     -0.00863662	      2.96300470	      0.01341575	     -0.53982150	    348.93199286	    -46.28760375	     -3.45235299	      0.00801998	      2.67721547	      0.00898974	     -2.70571112	      0.00469841
     25.07700000	     13.16590027	    338.56839731	     54.29709562	     -3.46971565	      0.00742924	      2.27289346	     -0.00864648	      2.96638657	      0.01343106	     -0.59133356	    349.30030639	    -46.25611572	     -3.45232916	      0.00802003	      2.67719581	      0.00904333	     -2.72184074	      0.00472642
     25.07800000	     13.00893067	    338.75144093	     54.53663087	     -3.46978993	      0.00742941	      2.27280651	     -0.00865387	      2.96892427	      0.01344255	     -0.64662191	    349.65719588	    -46.23041077	     -3.45230728	      0.00802007	      2.67717833	      0.00909574	     -2.73761440	      0.00475381
     25.07900000	     12.82132262	    338.94265984	     54.77700027	     -3.46985765	      0.00742960	      2.27272047	     -0.00865895	      2.97066639	      0.01345044	     -0.70502703	    349.99997799	    -46.21039647	     -3.45228772	      0.00802011	      2.67716309	      0.00914681	     -2.75298443	      0.00478050
     25.08000000	     12.60422768	    339.14359569	     55.01765410	     -3.46991882	      0.00742981	      2.27263553	     -0.00866186	      2.97166515	      0.01345496	     -0.76589876	    350.32605945	    -46.19593150	     -3.45227085	      0.00802014	      2.67715015	      0.00919638	     -2.76790406	      0.00480640
     25.08100000	     12.35900194	    339.35567703	     55.25802685	     -3.46997350	      0.00743003	      2.27255187	     -0.00866277	      2.97197581	      0.01345637	     -0.82860488	    350.63295493	    -46.18682661	     -3.45225699	      0.00802017	      2.67713950	      0.00924430	     -2.78232783	      0.00483145
